<svg xmlns="http://www.w3.org/2000/svg" xmlns:svg="http://www.w3.org/2000/svg" id="svg4856" width="790.688" height="382.023" version="1.1" viewBox="0 0 790.688 382.023" xml:space="preserve"><metadata id="metadata4862"/><defs id="defs4860"><clipPath id="clipPath4874" clipPathUnits="userSpaceOnUse"><path id="path4872" d="M 0,0 H 612 V 792 H 0 Z"/></clipPath><clipPath id="clipPath4884" clipPathUnits="userSpaceOnUse"><path id="path4882" d="M 173.8687,495.925 H 424.4312 V 757.8 H 173.8687 Z"/></clipPath><clipPath id="clipPath4894" clipPathUnits="userSpaceOnUse"><path id="path4892" d="m 198.4656,535.0219 h 90.38438 v 83.84062 H 198.4656 Z"/></clipPath><clipPath id="clipPath4904" clipPathUnits="userSpaceOnUse"><path id="path4902" d="m 199.4656,536.0219 h 88.38438 v 81.84062 H 199.4656 Z"/></clipPath><clipPath id="clipPath4924" clipPathUnits="userSpaceOnUse"><path id="path4922" d="m 246.5138,651.7185 h 105.2724 v 50.68802 H 246.5138 Z"/></clipPath><clipPath id="clipPath4938" clipPathUnits="userSpaceOnUse"><path id="path4936" d="m 309.2656,535.0219 h 90.38438 v 83.84062 H 309.2656 Z"/></clipPath><clipPath id="clipPath4948" clipPathUnits="userSpaceOnUse"><path id="path4946" d="m 310.2656,536.0219 h 88.38438 v 81.84062 H 310.2656 Z"/></clipPath><clipPath id="clipPath4968" clipPathUnits="userSpaceOnUse"><path id="path4966" d="m 494.6578,525.8625 h 102 v 102 h -102 z"/></clipPath><clipPath id="clipPath4978" clipPathUnits="userSpaceOnUse"><path id="path4976" d="m 495.6578,526.8625 h 100 v 100 h -100 z"/></clipPath><clipPath id="clipPath4998" clipPathUnits="userSpaceOnUse"><path id="path4996" d="M 496.6578,571.0625 H 397.65 v 11.6 h 99.0078 z"/></clipPath><clipPath id="clipPath5004" clipPathUnits="userSpaceOnUse"><path id="path5002" d="M 0,0 H 612 V 792 H 0 Z"/></clipPath><clipPath id="clipPath5020" clipPathUnits="userSpaceOnUse"><path id="path5018" d="M 1.642184,525.8625 H 103.64218 v 102 H 1.642184 Z"/></clipPath><clipPath id="clipPath5030" clipPathUnits="userSpaceOnUse"><path id="path5028" d="m 2.642184,526.8625 h 99.999996 v 100 H 2.642184 Z"/></clipPath><clipPath id="clipPath5050" clipPathUnits="userSpaceOnUse"><path id="path5048" d="m 200.65,571.0625 h -99.0078 v 11.6 H 200.65 Z"/></clipPath><clipPath id="clipPath5056" clipPathUnits="userSpaceOnUse"><path id="path5054" d="M 0,0 H 612 V 792 H 0 Z"/></clipPath><clipPath id="clipPath5072" clipPathUnits="userSpaceOnUse"><path id="path5070" d="M 8.299996,459.7031 H 122 v 58.69688 H 8.299996 Z"/></clipPath><clipPath id="clipPath5106" clipPathUnits="userSpaceOnUse"><path id="path5104" d="m 495.6578,459.7031 h 113.7 v 58.69688 h -113.7 z"/></clipPath><clipPath id="clipPath5140" clipPathUnits="userSpaceOnUse"><path id="path5138" d="m 107.9656,576.9422 h 66.90313 v 24.82188 H 107.9656 Z"/></clipPath><clipPath id="clipPath5154" clipPathUnits="userSpaceOnUse"><path id="path5152" d="m 423.4312,576.9422 h 66.90313 v 24.82188 H 423.4312 Z"/></clipPath></defs><g id="g4864" transform="matrix(1.3333333,0,0,-1.3333333,-3.5229099,1009.0666)"><g id="g4878"><g id="g4880" clip-path="url(#clipPath4884)"><path id="path4886" d="m 231.8641,756.8 h 134.5718 c 16.3405,0 24.6374,0 33.4505,-2.793 9.6443,-3.5103 17.2416,-11.1075 20.7518,-20.7519 2.793,-8.8131 2.793,-17.11 2.793,-33.7038 v -145.631 c 0,-16.3404 0,-24.6373 -2.793,-33.4504 -3.5102,-9.6444 -11.1075,-17.2416 -20.7518,-20.7519 -8.8131,-2.793 -17.11,-2.793 -33.7039,-2.793 H 231.8641 c -16.3405,0 -24.6374,0 -33.4505,2.793 -9.6444,3.5103 -17.2416,11.1075 -20.7518,20.7519 -2.7931,8.8131 -2.7931,17.11 -2.7931,33.7038 v 145.631 c 0,16.3404 0,24.6373 2.7931,33.4504 3.5102,9.6444 11.1074,17.2416 20.7518,20.7519 8.8131,2.793 17.11,2.793 33.7039,2.793 z" style="fill:#0099f5;fill-opacity:1;fill-rule:nonzero;stroke:none"/></g></g><g id="g4888"><g id="g4890" clip-path="url(#clipPath4894)"><path id="path4896" d="m 219.7321,617.8625 h 47.8514 c 5.8103,0 8.7606,0 11.8944,-0.9931 3.4293,-1.2482 6.1308,-3.9497 7.3789,-7.379 0.9932,-3.1338 0.9932,-6.084 0.9932,-11.9845 v -41.2175 c 0,-5.8104 0,-8.7606 -0.9932,-11.8944 -1.2481,-3.4293 -3.9496,-6.1308 -7.3789,-7.379 -3.1338,-0.9931 -6.0841,-0.9931 -11.9845,-0.9931 h -47.7613 c -5.8103,0 -8.7606,0 -11.8944,0.9931 -3.4293,1.2482 -6.1307,3.9497 -7.3789,7.379 -0.9932,3.1338 -0.9932,6.084 -0.9932,11.9845 v 41.2175 c 0,5.8104 0,8.7606 0.9932,11.8944 1.2482,3.4293 3.9496,6.1308 7.3789,7.379 3.1338,0.9931 6.0841,0.9931 11.9845,0.9931 z" style="fill:#8ce0ff;fill-opacity:1;fill-rule:nonzero;stroke:none"/></g></g><g id="g4898"><g id="g4900" clip-path="url(#clipPath4904)"><g id="g4906" transform="translate(228,580)"><text id="text4910" transform="scale(1,-1)" style="font-variant:normal;font-weight:400;font-size:15px;font-family:'Helvetica Neue';-inkscape-font-specification:HelveticaNeue;writing-mode:lr-tb;fill:#3b69aa;fill-opacity:1;fill-rule:nonzero;stroke:none"><tspan id="tspan4908" x="0 10.275 18.615 21.945 25.275 34.17" y="0">Build</tspan></text></g><g id="g4912" transform="translate(224,563)"><text id="text4916" transform="scale(1,-1)" style="font-variant:normal;font-weight:400;font-size:15px;font-family:'Helvetica Neue';-inkscape-font-specification:HelveticaNeue;writing-mode:lr-tb;fill:#3b69aa;fill-opacity:1;fill-rule:nonzero;stroke:none"><tspan id="tspan4914" x="0 9.72 17.775 22.77 30.27 38.325" y="0">Server</tspan></text></g></g></g><g id="g4918"><g id="g4920" clip-path="url(#clipPath4924)"><g id="g4926" transform="translate(255,667)"><text id="text4930" transform="scale(1,-1)" style="font-variant:normal;font-weight:700;font-size:28px;font-family:'Helvetica Neue';-inkscape-font-specification:HelveticaNeue-Bold;writing-mode:lr-tb;fill:#fff;fill-opacity:1;fill-rule:nonzero;stroke:none"><tspan id="tspan4928" x="0 19.712 26.936 44.044 61.152" y="0">Bloop</tspan></text></g></g></g><g id="g4932"><g id="g4934" clip-path="url(#clipPath4938)"><path id="path4940" d="m 330.5321,617.8625 h 47.8514 c 5.8104,0 8.7606,0 11.8944,-0.9931 3.4293,-1.2482 6.1308,-3.9497 7.379,-7.379 0.9931,-3.1338 0.9931,-6.084 0.9931,-11.9845 v -41.2175 c 0,-5.8104 0,-8.7606 -0.9931,-11.8944 -1.2482,-3.4293 -3.9497,-6.1308 -7.379,-7.379 -3.1338,-0.9931 -6.084,-0.9931 -11.9845,-0.9931 h -47.7613 c -5.8103,0 -8.7606,0 -11.8943,0.9931 -3.4294,1.2482 -6.1308,3.9497 -7.379,7.379 -0.9932,3.1338 -0.9932,6.084 -0.9932,11.9845 v 41.2175 c 0,5.8104 0,8.7606 0.9932,11.8944 1.2482,3.4293 3.9496,6.1308 7.379,7.379 3.1337,0.9931 6.084,0.9931 11.9844,0.9931 z" style="fill:#8ce0ff;fill-opacity:1;fill-rule:nonzero;stroke:none"/></g></g><g id="g4942"><g id="g4944" clip-path="url(#clipPath4948)"><g id="g4950" transform="translate(327,580)"><text id="text4954" transform="scale(1,-1)" style="font-variant:normal;font-weight:400;font-size:15px;font-family:'Helvetica Neue';-inkscape-font-specification:HelveticaNeue;writing-mode:lr-tb;fill:#3b69aa;fill-opacity:1;fill-rule:nonzero;stroke:none"><tspan id="tspan4952" x="0 10.83 18.885 22.215 25.545 34.155 42.495 50.835" y="0">Nailgun</tspan></text></g><g id="g4956" transform="translate(331,563)"><text id="text4960" transform="scale(1,-1)" style="font-variant:normal;font-weight:400;font-size:15px;font-family:'Helvetica Neue';-inkscape-font-specification:HelveticaNeue;writing-mode:lr-tb;fill:#3b69aa;fill-opacity:1;fill-rule:nonzero;stroke:none"><tspan id="tspan4958" x="0 9.72 17.775 22.77 30.27 38.325" y="0">Server</tspan></text></g></g></g><g id="g4962"><g id="g4964" clip-path="url(#clipPath4968)"><path id="path4970" d="m 581.0131,612.2178 c 19.5263,-19.5262 19.5263,-51.1844 0,-70.7106 -19.5262,-19.5263 -51.1844,-19.5263 -70.7106,0 -19.5262,19.5262 -19.5262,51.1844 0,70.7106 19.5262,19.5263 51.1844,19.5263 70.7106,0 z" style="fill:#00d1e5;fill-opacity:1;fill-rule:nonzero;stroke:none"/></g></g><g id="g4972"><g id="g4974" clip-path="url(#clipPath4978)"><g id="g4980" transform="translate(520,581)"><text id="text4984" transform="scale(1,-1)" style="font-variant:normal;font-weight:400;font-size:16px;font-family:'Helvetica Neue';-inkscape-font-specification:HelveticaNeue;writing-mode:lr-tb;fill:#fff;fill-opacity:1;fill-rule:nonzero;stroke:none"><tspan id="tspan4982" x="0 10.96 19.856 23.408 26.96 32 38.224 41.776 50.672" y="0">Built-in</tspan></text></g><g id="g4986" transform="translate(533,563)"><text id="text4990" transform="scale(1,-1)" style="font-variant:normal;font-weight:400;font-size:16px;font-family:'Helvetica Neue';-inkscape-font-specification:HelveticaNeue;writing-mode:lr-tb;fill:#fff;fill-opacity:1;fill-rule:nonzero;stroke:none"><tspan id="tspan4988" x="0 11.552 20.448" y="0">CLI</tspan></text></g></g></g><g id="g4992"><g id="g4994" clip-path="url(#clipPath4998)"><g id="g5000" clip-path="url(#clipPath5004)"><g id="g5006" transform="matrix(-1,0,0,1,495.6578,576.8625)"><path id="path5008" d="m 8.6,0 h 1 77.80782 1" style="fill:none;stroke:#023c64;stroke-width:2;stroke-linecap:butt;stroke-linejoin:miter;stroke-miterlimit:4;stroke-dasharray:none;stroke-opacity:1"/></g><path id="path5010" d="m 408.25,581.6625 -9.6,-4.8 9.6,-4.8 z" style="fill:#023c64;fill-opacity:1;fill-rule:nonzero;stroke:none"/><path id="path5012" d="m 486.0578,572.0625 9.6,4.8 -9.6,4.8 z" style="fill:#023c64;fill-opacity:1;fill-rule:nonzero;stroke:none"/></g></g></g><g id="g5014"><g id="g5016" clip-path="url(#clipPath5020)"><path id="path5022" d="m 87.99752,612.2178 c 19.52618,-19.5262 19.52618,-51.1844 0,-70.7106 -19.52621,-19.5263 -51.18446,-19.5263 -70.71068,0 -19.52621,19.5262 -19.52621,51.1844 0,70.7106 19.52622,19.5263 51.18447,19.5263 70.71068,0 z" style="fill:#00d1e5;fill-opacity:1;fill-rule:nonzero;stroke:none"/></g></g><g id="g5024"><g id="g5026" clip-path="url(#clipPath5030)"><g id="g5032" transform="translate(34,581)"><text id="text5036" transform="scale(1,-1)" style="font-variant:normal;font-weight:400;font-size:16px;font-family:'Helvetica Neue';-inkscape-font-specification:HelveticaNeue;writing-mode:lr-tb;fill:#fff;fill-opacity:1;fill-rule:nonzero;stroke:none"><tspan id="tspan5034" x="0 10.96 19.856 23.408 26.96 36.448" y="0">Build</tspan></text></g><g id="g5038" transform="translate(28,563)"><text id="text5042" transform="scale(1,-1)" style="font-variant:normal;font-weight:400;font-size:16px;font-family:'Helvetica Neue';-inkscape-font-specification:HelveticaNeue;writing-mode:lr-tb;fill:#fff;fill-opacity:1;fill-rule:nonzero;stroke:none"><tspan id="tspan5040" x="0 11.552 15.104 18.656 27.248 36.144 41.184" y="0">Clients</tspan></text></g></g></g><g id="g5044"><g id="g5046" clip-path="url(#clipPath5050)"><g id="g5052" clip-path="url(#clipPath5056)"><g id="g5058" transform="matrix(-1,0,0,1,199.65,576.8625)"><path id="path5060" d="m 8.6,0 h 1 77.80782 1" style="fill:none;stroke:#023c64;stroke-width:2;stroke-linecap:butt;stroke-linejoin:miter;stroke-miterlimit:4;stroke-dasharray:none;stroke-opacity:1"/></g><path id="path5062" d="m 112.2422,581.6625 -9.6,-4.8 9.6,-4.8 z" style="fill:#023c64;fill-opacity:1;fill-rule:nonzero;stroke:none"/><path id="path5064" d="m 190.05,572.0625 9.6,4.8 -9.6,4.8 z" style="fill:#023c64;fill-opacity:1;fill-rule:nonzero;stroke:none"/></g></g></g><g id="g5066"><g id="g5068" clip-path="url(#clipPath5072)"><g id="g5074" transform="translate(12,503)"><text id="text5078" transform="scale(1,-1)" style="font-variant:normal;font-weight:400;font-size:13px;font-family:'Helvetica Neue';-inkscape-font-specification:HelveticaNeue;writing-mode:lr-tb;fill:#000;fill-opacity:1;fill-rule:nonzero;stroke:none"><tspan id="tspan5076" x="0 8.905 16.133 19.019 21.905 29.614 33.228 39.247 46.709 54.171 57.057" y="0">Build Tools</tspan></text></g><g id="g5084" transform="translate(12,488)"><text id="text5088" transform="scale(1,-1)" style="font-variant:normal;font-weight:400;font-size:13px;font-family:'Helvetica Neue';-inkscape-font-specification:HelveticaNeue;writing-mode:lr-tb;fill:#000;fill-opacity:1;fill-rule:nonzero;stroke:none"><tspan id="tspan5086" x="0 7.943 15.652 18.538 22.633 30.095 34.424 40.924 44.538 48.867 52.481 55.848 65 72.943" y="0">Editors / IDEs</tspan></text></g><g id="g5094" transform="translate(12,473)"><text id="text5098" transform="scale(1,-1)" style="font-variant:normal;font-weight:400;font-size:13px;font-family:'Helvetica Neue';-inkscape-font-specification:HelveticaNeue;writing-mode:lr-tb;fill:#000;fill-opacity:1;fill-rule:nonzero;stroke:none"><tspan id="tspan5096" x="0 3.367 10.595 15.652 22.88 30.342 37.57 44.07 51.051 54.665 58.76 66.222 73.684 76.57 79.456 86.684" y="0">In-house tooling</tspan></text></g></g></g><g id="g5100"><g id="g5102" clip-path="url(#clipPath5106)"><g id="g5108" transform="translate(500,503)"><text id="text5112" transform="scale(1,-1)" style="font-variant:normal;font-weight:400;font-size:13px;font-family:'Helvetica Neue';-inkscape-font-specification:HelveticaNeue;writing-mode:lr-tb;fill:#000;fill-opacity:1;fill-rule:nonzero;stroke:none"><tspan id="tspan5110" x="0 7.943 15.171 22.88 26.494 33.722 40.222 47.203 51.532" y="0">End users</tspan></text></g><g id="g5118" transform="translate(500,488)"><text id="text5122" transform="scale(1,-1)" style="font-variant:normal;font-weight:400;font-size:13px;font-family:'Helvetica Neue';-inkscape-font-specification:HelveticaNeue;writing-mode:lr-tb;fill:#000;fill-opacity:1;fill-rule:nonzero;stroke:none"><tspan id="tspan5120" x="0 8.905 16.133 19.019 21.905 29.614 33.228 39.247 46.709 54.171 57.057" y="0">Build Tools</tspan></text></g><g id="g5128" transform="translate(500,473)"><text id="text5132" transform="scale(1,-1)" style="font-variant:normal;font-weight:400;font-size:13px;font-family:'Helvetica Neue';-inkscape-font-specification:HelveticaNeue;writing-mode:lr-tb;fill:#000;fill-opacity:1;fill-rule:nonzero;stroke:none"><tspan id="tspan5130" x="0 3.367 10.595 15.652 22.88 30.342 37.57 44.07 51.051 54.665 58.76 66.222 73.684 76.57 79.456 86.684" y="0">In-house tooling</tspan></text></g></g></g><g id="g5134"><g id="g5136" clip-path="url(#clipPath5140)"><g id="g5142" transform="translate(112,586)"><text id="text5146" transform="scale(1,-1)" style="font-variant:normal;font-weight:400;font-size:13px;font-family:'Helvetica Neue';-inkscape-font-specification:HelveticaNeue;writing-mode:lr-tb;fill:#042842;fill-opacity:1;fill-rule:nonzero;stroke:none"><tspan id="tspan5144" x="0 2.886 10.114 14.209 21.19 28.652 32.981 39.962 44.057 51.038" y="0">integrates</tspan></text></g></g></g><g id="g5148"><g id="g5150" clip-path="url(#clipPath5154)"><g id="g5156" transform="translate(427,586)"><text id="text5160" transform="scale(1,-1)" style="font-variant:normal;font-weight:400;font-size:13px;font-family:'Helvetica Neue';-inkscape-font-specification:HelveticaNeue;writing-mode:lr-tb;fill:#042842;fill-opacity:1;fill-rule:nonzero;stroke:none"><tspan id="tspan5158" x="0 2.886 10.114 14.209 21.19 28.652 32.981 39.962 44.057 51.038" y="0">integrates</tspan></text></g></g></g></g></svg>