<svg xmlns="http://www.w3.org/2000/svg" xmlns:xlink="http://www.w3.org/1999/xlink" width="242pt" height="44pt" viewBox="0 0 242 44"><g id="graph0" class="graph" transform="scale(1 1) rotate(0) translate(4 40)"><title>project</title><polygon fill="#fff" stroke="transparent" points="-4 4 -4 -40 238 -40 238 4 -4 4"/><g id="node1" class="node"><title>c</title><ellipse cx="27" cy="-18" fill="none" stroke="#000" rx="27" ry="18"/><text x="27" y="-13.8" fill="#000" font-family="Times,serif" font-size="14" text-anchor="middle">c</text></g><g id="node2" class="node"><title>b</title><ellipse cx="117" cy="-18" fill="none" stroke="#000" rx="27" ry="18"/><text x="117" y="-13.8" fill="#000" font-family="Times,serif" font-size="14" text-anchor="middle">b</text></g><g id="edge1" class="edge"><title>c-&gt;b</title><path fill="none" stroke="#000" d="M54.003,-18C62.0277,-18 70.9665,-18 79.5309,-18"/><polygon fill="#000" stroke="#000" points="79.705 -21.5 89.705 -18 79.705 -14.5 79.705 -21.5"/></g><g id="node3" class="node"><title>a</title><ellipse cx="207" cy="-18" fill="none" stroke="#000" rx="27" ry="18"/><text x="207" y="-13.8" fill="#000" font-family="Times,serif" font-size="14" text-anchor="middle">a</text></g><g id="edge2" class="edge"><title>b-&gt;a</title><path fill="none" stroke="#000" d="M144.003,-18C152.0277,-18 160.9665,-18 169.5309,-18"/><polygon fill="#000" stroke="#000" points="169.705 -21.5 179.705 -18 169.705 -14.5 169.705 -21.5"/></g></g></svg>