<svg xmlns="http://www.w3.org/2000/svg" xmlns:xlink="http://www.w3.org/1999/xlink" width="152pt" height="98pt" viewBox="0 0 152 98"><g id="graph0" class="graph" transform="scale(1 1) rotate(0) translate(4 94)"><title>project</title><polygon fill="#fff" stroke="transparent" points="-4 4 -4 -94 148 -94 148 4 -4 4"/><g id="node1" class="node"><title>b</title><ellipse cx="27" cy="-72" fill="none" stroke="#000" rx="27" ry="18"/><text x="27" y="-67.8" fill="#000" font-family="Times,serif" font-size="14" text-anchor="middle">b</text></g><g id="node2" class="node"><title>a</title><ellipse cx="117" cy="-45" fill="none" stroke="#000" rx="27" ry="18"/><text x="117" y="-40.8" fill="#000" font-family="Times,serif" font-size="14" text-anchor="middle">a</text></g><g id="edge1" class="edge"><title>b-&gt;a</title><path fill="none" stroke="#000" d="M52.07,-64.479C61.5102,-61.6469 72.4169,-58.3749 82.564,-55.3308"/><polygon fill="#000" stroke="#000" points="83.803 -58.613 92.376 -52.387 81.791 -51.908 83.803 -58.613"/></g><g id="node3" class="node"><title>c</title><ellipse cx="27" cy="-18" fill="none" stroke="#000" rx="27" ry="18"/><text x="27" y="-13.8" fill="#000" font-family="Times,serif" font-size="14" text-anchor="middle">c</text></g><g id="edge2" class="edge"><title>c-&gt;a</title><path fill="none" stroke="#000" d="M52.07,-25.521C61.5102,-28.3531 72.4169,-31.6251 82.564,-34.6692"/><polygon fill="#000" stroke="#000" points="81.791 -38.092 92.376 -37.613 83.803 -31.387 81.791 -38.092"/></g></g></svg>